<?xml version="1.0" encoding="utf-8"?>
<!-- Generator: Adobe Illustrator 21.1.0, SVG Export Plug-In . SVG Version: 6.00 Build 0)  -->
<svg version="1.1" xmlns="http://www.w3.org/2000/svg" xmlns:xlink="http://www.w3.org/1999/xlink" x="0px" y="0px"
	 viewBox="0 0 197 276" style="enable-background:new 0 0 197 276;" xml:space="preserve">
<style type="text/css">
	.st0{fill:#564441;}
	.st1{fill:url(#SVGID_1_);}
	.st2{fill:url(#SVGID_2_);}
	.st3{stroke:#75C2C6;stroke-width:2;stroke-miterlimit:10;}
	.st4{fill:#FFFFFF;}
	.st5{fill:url(#SVGID_3_);stroke:#F2DE6B;stroke-miterlimit:10;}
	.st6{fill:#E5E5E5;stroke:#000000;stroke-width:2;stroke-miterlimit:10;}
	.st7{fill:#FFFFFF;fill-opacity:0.5;stroke:#000000;stroke-width:3;stroke-miterlimit:10;}
	.st8{opacity:0.25;fill:#E5E5E5;}
</style>
<g id="Layer_1" xmlns:sketch="http://www.bohemiancoding.com/sketch/ns">
	<title>mole</title>
	<desc>Created with Sketch.</desc>
	<path class="st0" d="M42.2,123.7c0.3-1.9,0.6-3.8,0.9-5.7c11.2-62.6,52.8-80.3,78-55.5c11.6,11.4,19.7,31.9,19.7,61.2
		c22-2.7,43.3-8.6,54.3-63.2c2.3,44-21.8,71.6-51.9,80.8l3.9,75.8c-11.4,79.6-104.9,68.2-104.9,0v-72C14.6,131.7-8.4,115.6,3,79.5
		C6,98.3,6.8,118.1,42.2,123.7z"/>
	<linearGradient id="SVGID_1_" gradientUnits="userSpaceOnUse" x1="129.5" y1="68.5" x2="129.5" y2="16.3">
		<stop  offset="0" style="stop-color:#000000"/>
		<stop  offset="0.12" style="stop-color:#030100"/>
		<stop  offset="0.22" style="stop-color:#0D0402"/>
		<stop  offset="0.3" style="stop-color:#1E0905"/>
		<stop  offset="0.39" style="stop-color:#361008"/>
		<stop  offset="0.47" style="stop-color:#55190D"/>
		<stop  offset="0.54" style="stop-color:#7A2413"/>
		<stop  offset="0.57" style="stop-color:#892815"/>
		<stop  offset="0.57" style="stop-color:#872715"/>
		<stop  offset="0.64" style="stop-color:#5E1B0E"/>
		<stop  offset="0.71" style="stop-color:#3C1109"/>
		<stop  offset="0.78" style="stop-color:#220A05"/>
		<stop  offset="0.85" style="stop-color:#0F0402"/>
		<stop  offset="0.92" style="stop-color:#040101"/>
		<stop  offset="1" style="stop-color:#000000"/>
	</linearGradient>
	<polygon class="st1" points="143.2,16.3 115.8,58.1 126.2,68.5 	"/>
	<linearGradient id="SVGID_2_" gradientUnits="userSpaceOnUse" x1="52.55" y1="68.5" x2="52.55" y2="10">
		<stop  offset="0" style="stop-color:#000000"/>
		<stop  offset="0.12" style="stop-color:#030100"/>
		<stop  offset="0.22" style="stop-color:#0D0402"/>
		<stop  offset="0.3" style="stop-color:#1E0905"/>
		<stop  offset="0.39" style="stop-color:#361008"/>
		<stop  offset="0.47" style="stop-color:#55190D"/>
		<stop  offset="0.54" style="stop-color:#7A2413"/>
		<stop  offset="0.57" style="stop-color:#892815"/>
		<stop  offset="0.57" style="stop-color:#872715"/>
		<stop  offset="0.64" style="stop-color:#5E1B0E"/>
		<stop  offset="0.71" style="stop-color:#3C1109"/>
		<stop  offset="0.78" style="stop-color:#220A05"/>
		<stop  offset="0.85" style="stop-color:#0F0402"/>
		<stop  offset="0.92" style="stop-color:#040101"/>
		<stop  offset="1" style="stop-color:#000000"/>
	</linearGradient>
	<polygon class="st2" points="32.1,10 64.1,68.5 73,60 	"/>
	<circle class="st3" cx="74.5" cy="80.8" r="5.2"/>
	<circle class="st4" cx="74.6" cy="80.9" r="1"/>
	<circle class="st3" cx="93.5" cy="80.8" r="5.2"/>
	<circle class="st4" cx="93.6" cy="80.9" r="1"/>
	<circle class="st3" cx="112.5" cy="80.8" r="5.2"/>
	<circle class="st4" cx="112.6" cy="80.9" r="1"/>
	<path class="st4" d="M68.3,105c0,0,30,30.7,49.7,0"/>
	
		<linearGradient id="SVGID_3_" gradientUnits="userSpaceOnUse" x1="145.215" y1="-43.2468" x2="145.215" y2="-72.321" gradientTransform="matrix(1 0 0 -1 -51.59 108.46)">
		<stop  offset="0" style="stop-color:#000000"/>
		<stop  offset="0.12" style="stop-color:#030100"/>
		<stop  offset="0.22" style="stop-color:#0D0402"/>
		<stop  offset="0.3" style="stop-color:#1E0905"/>
		<stop  offset="0.39" style="stop-color:#361008"/>
		<stop  offset="0.47" style="stop-color:#55190D"/>
		<stop  offset="0.54" style="stop-color:#7A2413"/>
		<stop  offset="0.57" style="stop-color:#892815"/>
		<stop  offset="0.57" style="stop-color:#872715"/>
		<stop  offset="0.64" style="stop-color:#5E1B0E"/>
		<stop  offset="0.71" style="stop-color:#3C1109"/>
		<stop  offset="0.78" style="stop-color:#220A05"/>
		<stop  offset="0.85" style="stop-color:#0F0402"/>
		<stop  offset="0.92" style="stop-color:#040101"/>
		<stop  offset="1" style="stop-color:#000000"/>
	</linearGradient>
	<path class="st5" d="M84.4,151.9L84.4,151.9h-0.3c-0.5,0-1,0-1.5,0c-2,0.2-3.4,1.5-4.6,3.2c-0.6,0.9-1.2,2-1.6,3
		c-0.7,1.7-1.4,3.4-2.1,5.1c-0.2,0.6-0.5,1.1-0.7,1.7c-0.4,1.2-0.6,2.4-0.4,3.3c0.1,0.5,0.5,0.9,0.9,1.1c0.5,0.3,1.1,0.4,1.7,0.4
		c1,0,2.1,0,3.1,0c1.8,0,3.6,0,5.4,0c0.2,0,0.6,0,0.8,0.2c0.2,0.2,0.2,0.4,0.1,0.7c0,0.3-0.1,0.6-0.3,0.9c-0.3,0.6-0.5,1.1-0.7,1.7
		c-0.2,0.5-0.5,1.1-0.7,1.7c-0.2,0.6-0.5,1.2-0.8,1.5c-0.3,0.3-0.8,0.6-1.3,0.6c-0.5,0-1,0-1.6,0c-1,0-2.1,0-3.1,0
		c-2.1,0-4.2,0-6.2,0c-2.1,0-4.1,0-6.2,0c-2.1,0-4.1,0-6.2,0c-0.1,0-0.1,0-0.2,0c0,0,0,0,0,0.1c-0.3,1.2-0.5,2.4-0.8,3.6
		c8.3,0,16.6-0.1,24.8-0.1c0.5,0,1,0,1.5,0c0.9-0.1,1.8-0.4,2.6-0.9c1.1-0.7,2.1-2,2.9-3.4c0.5-1,1-2.1,1.5-3.3
		c0.7-1.7,1.4-3.4,2.1-5.1c0.1-0.3,0.2-0.6,0.3-0.9c0.6-1.5,0.9-3,0.5-4.1c-0.2-0.5-0.6-0.8-1-1c-0.5-0.2-1.1-0.3-1.7-0.3
		c-2.6,0-5.1,0-7.7,0h-0.8c-0.3,0-0.6-0.1-0.7-0.3c-0.2-0.4,0.2-1.2,0.4-1.7c0.4-0.9,0.7-1.7,1-2.5c0.1-0.3,0.2-0.5,0.4-0.8
		c0.2-0.3,0.5-0.6,0.8-0.8c2.3,0,4.6,0,6.9,0c1.4,0,2.7,0,4.1,0c0.2,0,0.3,0,0.5,0c0.2,0,0.3,0,0.5,0c0.8,0,1.7,0,2.6,0
		c0.2,0,0.3,0,0.5,0c-3.3,8.3-6.7,16.6-10,24.9c0.1,0,0.3,0,0.4,0c2,0,4,0,6,0c3.4-8.3,6.7-16.7,10-25c7.7,0,15.3-0.1,23-0.1
		c0.4-1.3,0.9-2.6,1.3-3.9C114.8,151.8,99.6,151.8,84.4,151.9z"/>
</g>
<g id="helmet">
	<path class="st6" d="M41.8,69.8c0,0-10.2,7.9-12.8,8.2c0,0-1.2-5.3-2.4-6s-3.8,0.1-4.2,6.8l-4.1,1c0,0-1.5-3.5-3-3.1
		s-4.3,2-3.8,4.6c0.6,2.6,1.8,4.1,3.8,3.8s2.6-0.5,2.8-1.6c0.2-1.1,4.2,1.5,4.7,3.2c0.4,1.7,1.4,5.2,2.4,5.1c1-0.1,3.4-2.2,2.8-5.4
		c-0.6-3.2,7.2,5.7,8.2,7.2c1,1.6,2.2,3,2.2,3L41.8,69.8z"/>
	<path class="st7" d="M44.4,118.4c0,0,15.6,19.8,58.4,15.1c36.1-4,41.7-2.9,43.2-46.5c0.2-7-0.8-32.8-28.5-50s-53.2,5.1-56.8,7.9
		C56.2,48.4,27.8,74.9,44.4,118.4z"/>
	<path class="st6" d="M143.5,69.8c0,0,10.2,7.9,12.8,8.2c0,0,1.2-5.3,2.4-6s3.8,0.1,4.2,6.8l4.1,1c0,0,1.5-3.5,3-3.1s4.3,2,3.8,4.6
		c-0.6,2.6-1.8,4.1-3.8,3.8c-1.9-0.2-2.6-0.5-2.8-1.6c-0.2-1.1-4.2,1.5-4.7,3.2c-0.4,1.7-1.4,5.2-2.4,5.1c-1-0.1-3.4-2.2-2.8-5.4
		c0.6-3.2-7.2,5.7-8.2,7.2c-1,1.6-2.2,3-2.2,3L143.5,69.8z"/>
	<path class="st8" d="M123.7,66.7c0,0-10,21-1.7,30s13.3,9.3,12.7-9c-0.7-18.3-4.9-30.3-8-25.7C123.7,66.7,123.7,66.7,123.7,66.7z"
		/>
</g>
</svg>
