<?xml version="1.0" encoding="utf-8"?>
<!-- Generator: Adobe Illustrator 22.0.1, SVG Export Plug-In . SVG Version: 6.00 Build 0)  -->
<svg version="1.1" id="Layer_1" xmlns="http://www.w3.org/2000/svg" xmlns:xlink="http://www.w3.org/1999/xlink" x="0px" y="0px"
	 viewBox="0 0 1920 1080" style="enable-background:new 0 0 1920 1080;" xml:space="preserve">
<style type="text/css">
	.st0{fill:url(#SVGID_1_);stroke:#000000;stroke-miterlimit:10;}
	.st1{fill:none;stroke:#000000;stroke-miterlimit:10;}
	.st2{fill:url(#SVGID_2_);stroke:#000000;stroke-miterlimit:10;}
	.st3{fill:url(#SVGID_3_);stroke:#000000;stroke-miterlimit:10;}
	.st4{fill:url(#SVGID_4_);stroke:#000000;stroke-miterlimit:10;}
	.st5{fill:url(#SVGID_5_);stroke:#000000;stroke-miterlimit:10;}
	.st6{fill:url(#SVGID_6_);stroke:#000000;stroke-miterlimit:10;}
	.st7{fill:url(#SVGID_7_);stroke:#000000;stroke-miterlimit:10;}
	.st8{fill:url(#SVGID_8_);stroke:#000000;stroke-miterlimit:10;}
	.st9{fill:url(#SVGID_9_);stroke:#000000;stroke-miterlimit:10;}
	.st10{fill:url(#SVGID_10_);stroke:#000000;stroke-miterlimit:10;}
	.st11{fill:url(#SVGID_11_);stroke:#000000;stroke-miterlimit:10;}
	.st12{fill:url(#SVGID_12_);stroke:#000000;stroke-miterlimit:10;}
	.st13{fill:url(#SVGID_13_);stroke:#000000;stroke-miterlimit:10;}
	.st14{fill:url(#SVGID_14_);stroke:#000000;stroke-miterlimit:10;}
	.st15{fill:url(#SVGID_15_);stroke:#000000;stroke-miterlimit:10;}
	.st16{fill:url(#SVGID_16_);stroke:#000000;stroke-miterlimit:10;}
	.st17{fill:#FEBD1A;}
	.st18{display:none;fill:#FFC93E;enable-background:new    ;}
	.st19{font-family:'ArialMT';}
	.st20{font-size:900px;}
	.st21{fill:#FFCD05;}
	.st22{fill:#FFC93E;}
	.st23{fill:#FEBE16;}
</style>
<g id="background_1_">
</g>
<g id="TROOPERS">
	<linearGradient id="SVGID_1_" gradientUnits="userSpaceOnUse" x1="937.5" y1="945" x2="937.5" y2="449.69">
		<stop  offset="0" style="stop-color:#808080"/>
		<stop  offset="9.893372e-02" style="stop-color:#929292"/>
		<stop  offset="0.2954" style="stop-color:#BFBFBF"/>
		<stop  offset="0.4455" style="stop-color:#E6E6E6"/>
		<stop  offset="0.5706" style="stop-color:#C5C5C5"/>
		<stop  offset="0.6952" style="stop-color:#ACACAC"/>
		<stop  offset="0.808" style="stop-color:#9C9C9C"/>
		<stop  offset="0.8986" style="stop-color:#979797"/>
		<stop  offset="1" style="stop-color:#808080"/>
	</linearGradient>
	<polygon class="st0" points="654.5,559.5 830.5,559.5 716.5,901.5 792.5,901.5 907.5,559.5 1201.5,559.5 1220.5,509.5 672.5,509.5 
			"/>
	<g>
		<path class="st1" d="M951.5,617.5h-14l-25,72h15c7.6-0.3,8-2,10-5l20-56C959.5,620.8,960.5,617.5,951.5,617.5z"/>
		<linearGradient id="SVGID_2_" gradientUnits="userSpaceOnUse" x1="913.197" y1="941" x2="913.197" y2="454.1941">
			<stop  offset="0" style="stop-color:#808080"/>
			<stop  offset="9.893372e-02" style="stop-color:#929292"/>
			<stop  offset="0.2954" style="stop-color:#BFBFBF"/>
			<stop  offset="0.4455" style="stop-color:#E6E6E6"/>
			<stop  offset="0.5706" style="stop-color:#C5C5C5"/>
			<stop  offset="0.6952" style="stop-color:#ACACAC"/>
			<stop  offset="0.808" style="stop-color:#9C9C9C"/>
			<stop  offset="0.8986" style="stop-color:#979797"/>
			<stop  offset="1" style="stop-color:#808080"/>
		</linearGradient>
		<path class="st2" d="M966.5,590.5h-45l-83,240h33l34-108h11c7,0,7.4,2.7,6,9l-35,99h28l22-60c18-45,16.1-58.6,4-65
			c10.2,0.3,21-7,24-15l21-66C990.5,612.5,986.5,591.5,966.5,590.5z M957.5,628.5l-20,56c-2,3-2.4,4.7-10,5h-15l25-72h14
			C960.5,617.5,959.5,620.8,957.5,628.5z"/>
	</g>
	<g>
		<path class="st1" d="M1439.5,617.5h-14l-25,72h15c7.6-0.3,8-2,10-5l20-56C1447.5,620.8,1448.5,617.5,1439.5,617.5z"/>
		<linearGradient id="SVGID_3_" gradientUnits="userSpaceOnUse" x1="1401.1969" y1="947" x2="1401.1969" y2="451.3832">
			<stop  offset="0" style="stop-color:#808080"/>
			<stop  offset="9.893372e-02" style="stop-color:#929292"/>
			<stop  offset="0.2954" style="stop-color:#BFBFBF"/>
			<stop  offset="0.4455" style="stop-color:#E6E6E6"/>
			<stop  offset="0.5706" style="stop-color:#C5C5C5"/>
			<stop  offset="0.6952" style="stop-color:#ACACAC"/>
			<stop  offset="0.808" style="stop-color:#9C9C9C"/>
			<stop  offset="0.8986" style="stop-color:#979797"/>
			<stop  offset="1" style="stop-color:#808080"/>
		</linearGradient>
		<path class="st3" d="M1454.5,590.5h-45l-83,240h33l34-108h11c7,0,7.4,2.7,6,9l-35,99h30l20-60c18-45,16.1-58.6,4-65
			c10.2,0.3,21-7,24-15l21-66C1478.5,612.5,1474.5,591.5,1454.5,590.5z M1445.5,628.5l-20,56c-2,3-2.4,4.7-10,5h-15l25-72h14
			C1448.5,617.5,1447.5,620.8,1445.5,628.5z"/>
	</g>
	<g>
		<path class="st1" d="M1047.5,618.5c-8-1-11,2-13,8l-54,163c-3.2,8.5-3.7,14.1,4,16h9c3-1,5.6-2.6,10-16l53-160
			C1059.2,620.7,1054.5,618.5,1047.5,618.5z"/>
		<linearGradient id="SVGID_4_" gradientUnits="userSpaceOnUse" x1="1019.4048" y1="947" x2="1019.4048" y2="452.6722">
			<stop  offset="0" style="stop-color:#808080"/>
			<stop  offset="9.893372e-02" style="stop-color:#929292"/>
			<stop  offset="0.2954" style="stop-color:#BFBFBF"/>
			<stop  offset="0.4455" style="stop-color:#E6E6E6"/>
			<stop  offset="0.5706" style="stop-color:#C5C5C5"/>
			<stop  offset="0.6952" style="stop-color:#ACACAC"/>
			<stop  offset="0.808" style="stop-color:#9C9C9C"/>
			<stop  offset="0.8986" style="stop-color:#979797"/>
			<stop  offset="1" style="stop-color:#808080"/>
		</linearGradient>
		<path class="st4" d="M1066.5,589.5h-25c-13,0.8-21.7,9.3-28,22l-57,176c-8.8,25.6-8.3,42.9,12,43h29c19.8-0.3,27-12,35-36l53-170
			C1091.8,601.9,1084.6,590.9,1066.5,589.5z M1056.5,629.5l-53,160c-4.4,13.4-7,15-10,16h-9c-7.7-1.9-7.2-7.5-4-16l54-163
			c2-6,5-9,13-8C1054.5,618.5,1059.2,620.7,1056.5,629.5z"/>
	</g>
	<g>
		<path class="st1" d="M1150.5,619.5c-7.2-1.3-11.3,3.1-14,10l-49,158c-4,11.4-2.3,14.9,2,15h9c4,0,5.8-4.3,9-15l48-153
			C1158.9,624.8,1156.8,620.2,1150.5,619.5z"/>
		<linearGradient id="SVGID_5_" gradientUnits="userSpaceOnUse" x1="1122.4048" y1="947" x2="1122.4048" y2="451.8313">
			<stop  offset="0" style="stop-color:#808080"/>
			<stop  offset="9.893372e-02" style="stop-color:#929292"/>
			<stop  offset="0.2954" style="stop-color:#BFBFBF"/>
			<stop  offset="0.4455" style="stop-color:#E6E6E6"/>
			<stop  offset="0.5706" style="stop-color:#C5C5C5"/>
			<stop  offset="0.6952" style="stop-color:#ACACAC"/>
			<stop  offset="0.808" style="stop-color:#9C9C9C"/>
			<stop  offset="0.8986" style="stop-color:#979797"/>
			<stop  offset="1" style="stop-color:#808080"/>
		</linearGradient>
		<path class="st5" d="M1169.5,590.5h-25c-13,0.8-21.7,9.3-28,22l-57,176c-8.8,25.6-8.3,42.9,12,42h29c19.8,0.7,27-11,35-35l53-170
			C1194.8,602.9,1187.6,591.9,1169.5,590.5z M1155.5,634.5l-48,153c-3.2,10.7-5,15-9,15h-9c-4.3-0.1-6-3.6-2-15l49-158
			c2.7-6.9,6.8-11.3,14-10C1156.8,620.2,1158.9,624.8,1155.5,634.5z"/>
	</g>
	<g>
		<path class="st1" d="M1262.5,617.3h-16l-40,122.3h14c3.8,0,6.5-2.5,8-6.1l38-107.1C1268.5,620.3,1268.1,617.2,1262.5,617.3z"/>
		<linearGradient id="SVGID_6_" gradientUnits="userSpaceOnUse" x1="1222.9063" y1="947" x2="1222.9063" y2="453.5347">
			<stop  offset="0" style="stop-color:#808080"/>
			<stop  offset="9.893372e-02" style="stop-color:#929292"/>
			<stop  offset="0.2954" style="stop-color:#BFBFBF"/>
			<stop  offset="0.4455" style="stop-color:#E6E6E6"/>
			<stop  offset="0.5706" style="stop-color:#C5C5C5"/>
			<stop  offset="0.6952" style="stop-color:#ACACAC"/>
			<stop  offset="0.808" style="stop-color:#9C9C9C"/>
			<stop  offset="0.8986" style="stop-color:#979797"/>
			<stop  offset="1" style="stop-color:#808080"/>
		</linearGradient>
		<path class="st6" d="M1279.5,590h-54l-79,240.5h34l17-57.6h30c15,0,23-4,28-16.2c10-31.3,22.8-70.9,38-118.2
			C1304.4,606.9,1300.1,590.5,1279.5,590z M1266.5,626.4l-38,107.1c-1.5,3.5-4.2,6.1-8,6.1h-14l40-122.3h16
			C1268.1,617.2,1268.5,620.3,1266.5,626.4z"/>
	</g>
	<linearGradient id="SVGID_7_" gradientUnits="userSpaceOnUse" x1="1316.5" y1="947" x2="1316.5" y2="452.4659">
		<stop  offset="0" style="stop-color:#808080"/>
		<stop  offset="9.893372e-02" style="stop-color:#929292"/>
		<stop  offset="0.2954" style="stop-color:#BFBFBF"/>
		<stop  offset="0.4455" style="stop-color:#E6E6E6"/>
		<stop  offset="0.5706" style="stop-color:#C5C5C5"/>
		<stop  offset="0.6952" style="stop-color:#ACACAC"/>
		<stop  offset="0.808" style="stop-color:#9C9C9C"/>
		<stop  offset="0.8986" style="stop-color:#979797"/>
		<stop  offset="1" style="stop-color:#808080"/>
	</linearGradient>
	<polygon class="st7" points="1250,831 1307,831 1314,807 1291,807 1317,720 1339,720 1347,699 1325,699 1350,618 1372,618 
		1383,590 1331,590 	"/>
	<linearGradient id="SVGID_8_" gradientUnits="userSpaceOnUse" x1="1508.2281" y1="945" x2="1508.2281" y2="450.6641">
		<stop  offset="0" style="stop-color:#808080"/>
		<stop  offset="9.893372e-02" style="stop-color:#929292"/>
		<stop  offset="0.2954" style="stop-color:#BFBFBF"/>
		<stop  offset="0.4455" style="stop-color:#E6E6E6"/>
		<stop  offset="0.5706" style="stop-color:#C5C5C5"/>
		<stop  offset="0.6952" style="stop-color:#ACACAC"/>
		<stop  offset="0.808" style="stop-color:#9C9C9C"/>
		<stop  offset="0.8986" style="stop-color:#979797"/>
		<stop  offset="1" style="stop-color:#808080"/>
	</linearGradient>
	<path class="st8" d="M1561.8,591.5h-26.2c-28.2,0-29.2,14.1-44.3,54.3l-11.1,38.2c-6,20.1-8.6,37.6,10.1,38.2h19.1c5,0,6,1,4,8.1
		l-24.2,68.4c-2.4,6.1-6.7,8.4-12.1,8.1c-5,0-7.4-2.6-6.6-8.4c0.2-1.5,0.6-2.9,1.1-4.2l18.5-48.8h-29.2l-21.1,59.4
		c-7,20.1-2,26.2,21.1,26.2h32.2c17.1,0,21.1-15.1,28.2-34.2l22.1-72.5c8.1-24.2,8.1-33.2-14.1-33.2h-18.1c-3.4,0.3-4.3-3.2-3-10.1
		l13.1-45.3c6-19.1,9.1-22.1,18.1-21.1c7.8-0.5,11.1,4,6,18.1l-12.3,37.5l27.4-0.3l18.2-56.5c1.5-4.6,1.1-9.8-1.3-14
		C1575.2,595.3,1570.4,591.5,1561.8,591.5z"/>
</g>
<g id="STARSHIP">
	<linearGradient id="SVGID_9_" gradientUnits="userSpaceOnUse" x1="654.5" y1="608.8655" x2="654.5" y2="86.9883">
		<stop  offset="0" style="stop-color:#808080"/>
		<stop  offset="9.893372e-02" style="stop-color:#929292"/>
		<stop  offset="0.2954" style="stop-color:#BFBFBF"/>
		<stop  offset="0.4455" style="stop-color:#E6E6E6"/>
		<stop  offset="0.5706" style="stop-color:#C5C5C5"/>
		<stop  offset="0.6952" style="stop-color:#ACACAC"/>
		<stop  offset="0.808" style="stop-color:#9C9C9C"/>
		<stop  offset="0.8986" style="stop-color:#979797"/>
		<stop  offset="1" style="stop-color:#808080"/>
	</linearGradient>
	<path class="st9" d="M511.5,221.5l-41,124c-13.3,35.4-7,70,29,66h80c24-1,23,10,19,31c-10.1,42.4-11,67-47,69l-224-2l-11,50h251
		c41,0,63-6,77-44l46-149c9-33-7-57-42-56h-85c-13.8,0.4-9-19,2-49c12-35,17-39,43-39h364l20-46h-428
		C540.5,176.5,522.7,188.1,511.5,221.5z"/>
	<linearGradient id="SVGID_10_" gradientUnits="userSpaceOnUse" x1="745.5" y1="632.2866" x2="745.5" y2="84.9815">
		<stop  offset="0" style="stop-color:#808080"/>
		<stop  offset="9.893372e-02" style="stop-color:#929292"/>
		<stop  offset="0.2954" style="stop-color:#BFBFBF"/>
		<stop  offset="0.4455" style="stop-color:#E6E6E6"/>
		<stop  offset="0.5706" style="stop-color:#C5C5C5"/>
		<stop  offset="0.6952" style="stop-color:#ACACAC"/>
		<stop  offset="0.808" style="stop-color:#9C9C9C"/>
		<stop  offset="0.8986" style="stop-color:#979797"/>
		<stop  offset="1" style="stop-color:#808080"/>
	</linearGradient>
	<polygon class="st10" points="716.5,279.5 749.5,279.5 679.5,492.5 710.5,492.5 778.5,280.5 804.5,280.5 811.5,254.5 724.5,254.5 	
		"/>
	<g>
		<polygon class="st1" points="804.5,433.5 838.5,296.5 783.5,433.5 		"/>
		<linearGradient id="SVGID_11_" gradientUnits="userSpaceOnUse" x1="800" y1="633" x2="800" y2="85.9424">
			<stop  offset="0" style="stop-color:#808080"/>
			<stop  offset="9.893372e-02" style="stop-color:#929292"/>
			<stop  offset="0.2954" style="stop-color:#BFBFBF"/>
			<stop  offset="0.4455" style="stop-color:#E6E6E6"/>
			<stop  offset="0.5706" style="stop-color:#C5C5C5"/>
			<stop  offset="0.6952" style="stop-color:#ACACAC"/>
			<stop  offset="0.808" style="stop-color:#9C9C9C"/>
			<stop  offset="0.8986" style="stop-color:#979797"/>
			<stop  offset="1" style="stop-color:#808080"/>
		</linearGradient>
		<path class="st11" d="M732.5,492.5h29l9-27h25l-8,27h28c16-76,47-167,52-238h-39C817.5,292.5,771.5,395.5,732.5,492.5z
			 M804.5,433.5h-21l55-137L804.5,433.5z"/>
	</g>
	<g>
		<path class="st1" d="M943.5,281.5h-15l-25,72h22l20-57C951.5,281.5,952.5,281.5,943.5,281.5z"/>
		<linearGradient id="SVGID_12_" gradientUnits="userSpaceOnUse" x1="907.7867" y1="631" x2="907.7867" y2="85.9385">
			<stop  offset="0" style="stop-color:#808080"/>
			<stop  offset="9.893372e-02" style="stop-color:#929292"/>
			<stop  offset="0.2954" style="stop-color:#BFBFBF"/>
			<stop  offset="0.4455" style="stop-color:#E6E6E6"/>
			<stop  offset="0.5706" style="stop-color:#C5C5C5"/>
			<stop  offset="0.6952" style="stop-color:#ACACAC"/>
			<stop  offset="0.808" style="stop-color:#9C9C9C"/>
			<stop  offset="0.8986" style="stop-color:#979797"/>
			<stop  offset="1" style="stop-color:#808080"/>
		</linearGradient>
		<path class="st12" d="M953.5,254.5h-40l-79,238h27l35-107h13c7,1,2,8.7,1,14l-28,93h28c17-63,44-118,25-121c11,0,17,2,27-29l15-46
			C986.5,273.5,978.5,254.5,953.5,254.5z M945.5,296.5l-20,57h-22l25-72h15C952.5,281.5,951.5,281.5,945.5,296.5z"/>
	</g>
	<linearGradient id="SVGID_13_" gradientUnits="userSpaceOnUse" x1="1007.5271" y1="629" x2="1007.5271" y2="84.379">
		<stop  offset="0" style="stop-color:#808080"/>
		<stop  offset="9.893372e-02" style="stop-color:#929292"/>
		<stop  offset="0.2954" style="stop-color:#BFBFBF"/>
		<stop  offset="0.4455" style="stop-color:#E6E6E6"/>
		<stop  offset="0.5706" style="stop-color:#C5C5C5"/>
		<stop  offset="0.6952" style="stop-color:#ACACAC"/>
		<stop  offset="0.808" style="stop-color:#9C9C9C"/>
		<stop  offset="0.8986" style="stop-color:#979797"/>
		<stop  offset="1" style="stop-color:#808080"/>
	</linearGradient>
	<path class="st13" d="M1060.5,254.5h-26c-28,0-29,14-44,54l-11,38c-6,20-8.5,37.4,10,38h19c5,0,6,1,4,8l-24,68
		c-2.4,6.1-6.6,8.4-12,8c-5,0-7.4-2.5-6.5-8.3c0.2-1.4,0.6-2.9,1.1-4.2l18.4-48.5h-29l-21,59c-7,20-2,26,21,26h32c17,0,21-15,28-34
		l22-72c8-24,8-33-14-33h-18c-3.4,0.3-4.3-3.2-3-10l13-45c6-19,9-22,18-21c7.8-0.5,11,4,6,18l-12.3,37.3l27.3-0.3l18.1-56.1
		c1.5-4.6,1.1-9.7-1.3-13.9C1073.8,258.2,1069,254.5,1060.5,254.5z"/>
	<linearGradient id="SVGID_14_" gradientUnits="userSpaceOnUse" x1="1112.5" y1="633" x2="1112.5" y2="84.1794">
		<stop  offset="0" style="stop-color:#808080"/>
		<stop  offset="9.893372e-02" style="stop-color:#929292"/>
		<stop  offset="0.2954" style="stop-color:#BFBFBF"/>
		<stop  offset="0.4455" style="stop-color:#E6E6E6"/>
		<stop  offset="0.5706" style="stop-color:#C5C5C5"/>
		<stop  offset="0.6952" style="stop-color:#ACACAC"/>
		<stop  offset="0.808" style="stop-color:#9C9C9C"/>
		<stop  offset="0.8986" style="stop-color:#979797"/>
		<stop  offset="1" style="stop-color:#808080"/>
	</linearGradient>
	<polygon class="st14" points="1127.5,353.5 1110.5,353.5 1145.5,254.5 1115.5,254.5 1031.5,492.5 1062.5,492.5 1101.5,382.5 
		1121.5,382.5 1083.5,492.5 1115.5,492.5 1193.5,254.5 1163.5,254.5 	"/>
	<linearGradient id="SVGID_15_" gradientUnits="userSpaceOnUse" x1="1194.5" y1="633" x2="1194.5" y2="84.9088">
		<stop  offset="0" style="stop-color:#808080"/>
		<stop  offset="9.893372e-02" style="stop-color:#929292"/>
		<stop  offset="0.2954" style="stop-color:#BFBFBF"/>
		<stop  offset="0.4455" style="stop-color:#E6E6E6"/>
		<stop  offset="0.5706" style="stop-color:#C5C5C5"/>
		<stop  offset="0.6952" style="stop-color:#ACACAC"/>
		<stop  offset="0.808" style="stop-color:#9C9C9C"/>
		<stop  offset="0.8986" style="stop-color:#979797"/>
		<stop  offset="1" style="stop-color:#808080"/>
	</linearGradient>
	<polygon class="st15" points="1138.5,492.5 1171.5,492.5 1250.5,254.5 1221.5,254.5 	"/>
	<g>
		<path class="st1" d="M1312.5,276.5c-3.6,0-2.5,0-4,0c-10.1,0-10.3,4.7-14,15l-35,102c-0.9,2.8-1.5,5-1.8,6.7
			c-0.5,2.2,1.2,4.3,3.4,4.3h13.4c3.6,0.1,6.9-5.6,10-17l33-97C1321.5,276.5,1318.5,276.5,1312.5,276.5z"/>
		<linearGradient id="SVGID_16_" gradientUnits="userSpaceOnUse" x1="1271.0426" y1="635" x2="1271.0426" y2="85.7132">
			<stop  offset="0" style="stop-color:#808080"/>
			<stop  offset="9.893372e-02" style="stop-color:#929292"/>
			<stop  offset="0.2954" style="stop-color:#BFBFBF"/>
			<stop  offset="0.4455" style="stop-color:#E6E6E6"/>
			<stop  offset="0.5706" style="stop-color:#C5C5C5"/>
			<stop  offset="0.6952" style="stop-color:#ACACAC"/>
			<stop  offset="0.808" style="stop-color:#9C9C9C"/>
			<stop  offset="0.8986" style="stop-color:#979797"/>
			<stop  offset="1" style="stop-color:#808080"/>
		</linearGradient>
		<path class="st16" d="M1321.5,254.5h-46l-81,238h36l18-58h30c10.8,0.3,21.3-2.9,30-30l36-106
			C1353.5,274.5,1341.9,253.9,1321.5,254.5z M1317.5,290.5l-33,97c-3.1,11.4-6.4,17.1-10,17h-13.4c-2.3,0-3.9-2.1-3.4-4.3
			c0.4-1.7,1-3.9,1.8-6.7l35-102c3.7-10.3,3.9-15,14-15c1.5,0,0.4,0,4,0C1318.5,276.5,1321.5,276.5,1317.5,290.5z"/>
	</g>
</g>
<g id="_x32_0thV2">
	<g>
		<path class="st17" d="M750.5,686.4c0,28.4-5.5,58.3-16.6,89.6c-11.1,31.4-25.7,58.1-43.9,80.3c-28.6,34.6-59,52-91,52
			c-24.7,0-44.7-10-60-29.9s-22.9-46.5-22.9-79.9c0-30.2,6.3-61.6,18.9-94.1c12.6-32.5,29.6-60.8,51-84.8
			c24-26.8,50.5-40.2,79.7-40.2c25,0,45.4,9.8,61.1,29.5C742.6,628.6,750.5,654.4,750.5,686.4z M716.5,665
			c0-24.5-4.5-43.4-13.5-56.6s-21.6-19.9-37.7-19.9c-33.6,0-62.2,30-85.9,89.8c-9.6,24.7-17.2,50.1-22.7,76s-8.2,48.5-8.2,67.8
			c0,24.5,4.6,43.5,13.7,57c9.1,13.5,21.7,20.3,37.9,20.3c15.6,0,29.9-6.5,43-19.5c13-13,25.8-33.5,38.3-61.3
			c10.9-24,19.5-49.8,25.8-77.5S716.5,687.9,716.5,665z"/>
	</g>
	<text transform="matrix(1 0 0 1 348.1953 848.3398)" class="st18 st19 st20">2</text>
	<g>
		<path class="st21" d="M931.2,858.7L920.9,902H914c-2.7-7.7-6.9-15.1-12.7-22.4c-5.8-7.2-12.5-13.2-19.8-17.9
			c-4.9,6.9-10.3,13.1-16.4,18.6c-6,5.5-12.4,10.2-19.2,14.1c-6.8,3.9-13.8,6.9-21.1,9.1s-14.5,3.2-21.5,3.2c-1.9,0-4-0.2-6.2-0.5
			l3.4-7.4c3.8,0.4,6.7,0.6,8.6,0.6c19.7,0,37.2-7,52.5-20.9c3.2-2.9,6.4-6.2,9.6-9.9c3.3-3.7,6.7-8.1,10.2-13.1
			c7.8-11.1,14.5-21.5,20-31.2l10.1-17.7c8-13.9,14.1-23.3,18.4-28.2c4.3-4.9,8.6-7.4,12.8-7.4c1.4,0,2.6,0.3,3.6,0.8
			s1.8,1.3,2.4,2.3c0.6,1,0.9,2.1,0.9,3.4c0,0.9-0.2,2.2-0.5,4c-0.4,2.3-0.6,3.6-0.6,3.8L932,855.5h7.6l-0.8,3.3L931.2,858.7
			L931.2,858.7z M921,858.7h-37.5l0.4,0.3c6.4,4.4,11.9,9,16.5,13.7s9.1,10.3,13.4,16.8L921,858.7z M886.4,855.4h35.4l15.3-66.4
			c0.5-2.1,0.8-3.3,0.8-3.3c0.4-1.3,0.6-2.5,0.6-3.5c0-1.6-0.8-2.4-2.4-2.4c-1.9,0-4.3,1.9-7,5.6c-2.7,3.7-7.5,11.3-14.2,22.9
			c-1,1.8-3,5.3-6.1,10.6c-2.6,4.2-4,6.6-4.2,7L894.3,843C890,850,887.3,854.2,886.4,855.4z"/>
		<path class="st21" d="M947.7,903l11.4-54.1l10.2-4l-9.3,35.8c6-11.4,11.9-20.1,17.8-26c5.9-5.9,11.5-8.9,16.9-8.9
			c2.7,0,4.8,0.8,6.5,2.4c1.7,1.6,2.5,3.7,2.5,6.4c0,1.5-0.4,3.6-1.2,6.3l-1.1,4.1l-3.2,11.9l-1.1,3.8c-1.1,3.9-1.6,6.9-1.6,9
			s0.4,3.8,1.2,5c0.8,1.3,1.8,1.9,3.1,1.9c2.2,0,5.8-2.4,10.7-7.2l1.7,1.4l-1.1,1.1c-4.1,4.4-7.1,7.3-9,8.8s-3.7,2.3-5.4,2.3
			c-2.2,0-4.1-1-5.6-3.1s-2.3-4.6-2.3-7.7c0-2.1,0.4-5.2,1.3-9.3l4.2-20.7c0.6-3.3,0.9-5.5,0.9-6.8c0-1.4-0.4-2.4-1.2-3.1
			c-0.8-0.7-1.9-1.1-3.2-1.1c-4.9,0-11,4.8-18.3,14.5c-3.5,4.6-6.4,9.2-8.7,13.7s-4.9,10.8-7.7,18.8l-1,2.6L947.7,903z"/>
		<path class="st21" d="M1019.2,903l11.4-54.1l10.2-4l-9.3,35.8c6-11.4,11.9-20.1,17.8-26s11.5-8.9,16.9-8.9c2.7,0,4.8,0.8,6.5,2.4
			c1.6,1.6,2.5,3.7,2.5,6.4c0,1.5-0.4,3.6-1.2,6.3l-1.1,4.1l-3.2,11.9l-1.1,3.8c-1.1,3.9-1.6,6.9-1.6,9s0.4,3.8,1.2,5
			c0.8,1.3,1.8,1.9,3.1,1.9c2.2,0,5.8-2.4,10.7-7.2l1.7,1.4l-1.1,1.1c-4.1,4.4-7.1,7.3-9,8.8s-3.7,2.3-5.4,2.3c-2.2,0-4.1-1-5.6-3.1
			s-2.3-4.6-2.3-7.7c0-2.1,0.4-5.2,1.3-9.3l4.2-20.7c0.6-3.3,0.9-5.5,0.9-6.8c0-1.4-0.4-2.4-1.2-3.1c-0.8-0.7-1.9-1.1-3.2-1.1
			c-4.9,0-11,4.8-18.3,14.5c-3.5,4.6-6.4,9.2-8.7,13.7c-2.3,4.5-4.9,10.8-7.7,18.8l-1,2.6L1019.2,903z"/>
		<path class="st21" d="M1111,844.9l-9.5,32.1c-1.6,5.3-2.4,9.5-2.4,12.7c0,2.1,0.4,3.8,1.2,5.1c0.8,1.3,1.8,2,3.1,2
			c2.2,0,5.8-2.4,10.7-7.2l1.7,1.4l-1.1,1.1c-4.1,4.4-7.1,7.3-9,8.8s-3.7,2.3-5.4,2.3c-2.2,0-4.1-1-5.6-3.1s-2.3-4.6-2.3-7.7
			c0-2,0.4-5,1.3-9.3l6.8-34.2L1111,844.9z M1114.2,806.6c1.9,0,3.4,0.5,4.5,1.6c1.1,1,1.7,2.4,1.7,4.1c0,1.6-0.6,3-1.8,4.1
			c-1.2,1.1-2.7,1.7-4.4,1.7c-1.7,0-3.1-0.6-4.4-1.8s-1.9-2.5-1.9-4c0-1.6,0.6-2.9,1.8-4C1110.9,807.1,1112.4,806.6,1114.2,806.6z"
			/>
		<path class="st21" d="M1124.2,848.9l9.7-4v2.5c0.2,9.5,0.8,19.5,1.8,30c0.6,5.5,1.1,9.5,1.5,12.2c0.4,2.6,0.9,4.4,1.5,5.3
			c0.6,0.9,1.4,1.4,2.4,1.4c2.7,0,7.4-4.6,14.2-13.8c6.1-8.1,9.1-15.5,9.1-22.4c0-2.4-0.3-4.4-1-6c-0.6-1.6-1.9-3.2-3.7-4.8l8.1-6.8
			c2.5,3,3.8,6.6,3.8,10.9c0,8.7-5.7,20.1-17,34.3c-3.4,4.3-7.1,8.1-11,11.5c-1.8,1.5-3.2,2.6-4.4,3.2c-1.1,0.6-2.2,0.9-3.3,0.9
			c-1.7,0-3-0.6-3.8-1.9c-0.8-1.2-1.4-3.6-1.8-7L1124.2,848.9z"/>
		<path class="st21" d="M1221.5,886.9l1.9,1.5c-4.4,5.3-8.8,9.2-13,11.6c-4.2,2.4-8.8,3.6-13.7,3.6c-5.8,0-10.5-1.8-14-5.3
			s-5.3-8.2-5.3-14c0-5.9,1.7-11.8,5.1-17.8s7.7-11,12.8-14.9c5.1-3.9,10.2-5.9,15.2-5.9c2.9,0,5.4,0.8,7.3,2.3
			c1.9,1.6,2.9,3.6,2.9,6.1c0,5-3,10-9,15s-14.2,9.3-24.6,12.8c-0.1,0.5-0.1,1.1-0.1,1.8c0,4.5,1.4,8.2,4.1,11s6.2,4.2,10.5,4.2
			c3.4,0,6.6-1,9.8-2.9C1214.6,894,1217.9,891,1221.5,886.9z M1187.1,879.4c7.7-3.1,13.7-6.6,17.9-10.4c2.8-2.6,5.1-5.4,6.8-8.4
			c1.7-3,2.6-5.7,2.6-8.1c0-3.1-1.5-4.6-4.6-4.6c-4.7,0-9.4,3.3-14.1,10C1190.8,864.6,1188,871.8,1187.1,879.4z"/>
		<path class="st21" d="M1230.9,874.3c6.2-6.8,10.3-13.1,12.4-18.9c-5.8-2.9-8.7-7.1-8.7-12.6c0-2.6,0.7-4.7,2-6.3
			c1.4-1.6,3.1-2.4,5.2-2.4c2.2,0,3.9,0.9,5.3,2.7s2,4.1,2,7c0,2-0.4,4.3-1.2,6.7c1.9,0.5,3.7,0.7,5.3,0.7c4.4,0,8.1-1.2,11-3.5h5.2
			l-0.8,1.4c-5.2,8.6-9.4,17-12.7,25.3c-3.3,8.3-5,14.5-5,18.6c0,1.5,0.4,2.8,1.3,3.8s1.9,1.5,3.1,1.5c2.9,0,7.7-2.8,14.2-8.5
			l1.7,1.8c-2,2-5.1,4.5-9.4,7.5c-3.8,2.7-7.4,4.1-10.7,4.1c-2.8,0-5-0.8-6.6-2.5s-2.4-4-2.4-6.9c0-4.9,2.1-11.1,6.2-18.6
			c1.5-2.8,3.4-6,5.8-9.6s5.3-7.8,8.9-12.8l1.1-1.4c-2.4,2-4.6,3.3-6.8,4.2c-2.2,0.8-4.7,1.2-7.5,1.2c-1.3,0-2.7-0.2-4.1-0.5
			c-2.3,6.4-6.6,13-12.9,19.7L1230.9,874.3z M1245.6,849.5c0.3-1.6,0.4-3,0.4-4.1c0-2.3-0.4-4.1-1.2-5.4c-0.8-1.3-1.9-2-3.2-2
			c-0.7,0-1.3,0.3-1.9,0.9c-0.5,0.6-0.8,1.4-0.8,2.3C1239,844.3,1241.2,847.1,1245.6,849.5z"/>
		<path class="st21" d="M1272.6,895.8l6-6.4c3.2,6.8,8.2,10.2,15.1,10.2c3.6,0,6.7-1.1,9.2-3.2c2.5-2.1,3.8-4.6,3.8-7.4
			c0-2-0.6-3.7-1.8-5.2c-1.2-1.4-4.1-3.8-8.7-7.2c-4.2-3.1-7.1-5.6-8.6-7.4c-1.5-1.8-2.2-3.9-2.2-6.2c0-3.1,1-5.9,3-8.5
			s4.6-4.7,7.9-6.3s6.8-2.4,10.4-2.4c3.2,0,5.9,0.7,8.1,2.2s3.3,3.3,3.3,5.6c0,3-1.4,5-4.2,6.2c-0.4-3.1-1.7-5.5-3.8-7.2
			c-2.1-1.7-4.8-2.6-8.1-2.6c-2.9,0-5.5,0.9-7.7,2.6c-2.2,1.7-3.3,3.7-3.3,5.9c0,2.7,1.9,5.4,5.6,8.1l6.2,4.6
			c6.1,4.4,9.1,8.8,9.1,13.4c0,3.4-1.1,6.6-3.2,9.5c-2.1,3-5,5.3-8.6,7.1s-7.4,2.6-11.5,2.6C1282.4,903.8,1277,901.1,1272.6,895.8z"
			/>
		<path class="st21" d="M1386.1,844.3L1376,880c-1.1,3.9-1.6,7-1.6,9.2c0,2,0.5,3.6,1.4,5.1c0.9,1.4,2.1,2.1,3.4,2.1
			c2.1,0,5.5-2.3,10.3-6.9l1.5,1.4l-1.2,1.3c-3.8,4-6.7,6.8-8.8,8.3c-2,1.6-3.8,2.4-5.3,2.4c-2.3,0-4.3-1.1-6-3.3s-2.5-4.7-2.5-7.6
			c0-2.1,0.9-6.8,2.6-14.2l0.9-3.7c-2.7,5.6-6.2,11-10.7,16.1c-7.5,8.6-14.6,12.9-21.4,12.9c-4.1,0-7.3-1.3-9.7-4
			c-2.4-2.7-3.6-6.2-3.6-10.7c0-6.1,1.9-12.5,5.8-19.2c3.8-6.7,8.6-12.2,14.3-16.6c5.7-4.3,11.2-6.5,16.6-6.5
			c5.7,0,9.9,1.9,12.7,5.7l1.2-3.7L1386.1,844.3z M1373.8,856.8c-0.9-2.5-2.3-4.4-4.4-5.8c-2-1.4-4.4-2.1-7-2.1c-3.2,0-6.5,1.3-10,4
			c-3.5,2.6-6.7,6.3-9.7,11c-2.3,3.7-4.2,7.8-5.8,12.3c-1.5,4.5-2.3,8.2-2.3,11.1c0,3.3,0.7,5.9,2.1,7.8c1.4,1.9,3.4,2.8,6,2.8
			c3.3,0,6.7-1.4,10.3-4.2c3.6-2.8,7.1-6.8,10.7-12c2.2-3,3.8-6,5.1-9c1.2-3,2.6-7.2,4.1-12.5L1373.8,856.8z"/>
		<path class="st21" d="M1397.1,874.3c6.2-6.8,10.3-13.1,12.4-18.9c-5.8-2.9-8.7-7.1-8.7-12.6c0-2.6,0.7-4.7,2-6.3
			c1.4-1.6,3.1-2.4,5.2-2.4c2.2,0,3.9,0.9,5.3,2.7s2,4.1,2,7c0,2-0.4,4.3-1.2,6.7c1.9,0.5,3.7,0.7,5.3,0.7c4.4,0,8.1-1.2,11-3.5h5.2
			l-0.8,1.4c-5.2,8.6-9.4,17-12.7,25.3c-3.3,8.3-5,14.5-5,18.6c0,1.5,0.4,2.8,1.3,3.8s1.9,1.5,3.1,1.5c2.9,0,7.7-2.8,14.2-8.5
			l1.7,1.8c-2,2-5.1,4.5-9.4,7.5c-3.8,2.7-7.4,4.1-10.7,4.1c-2.8,0-5-0.8-6.6-2.5s-2.4-4-2.4-6.9c0-4.9,2.1-11.1,6.2-18.6
			c1.5-2.8,3.4-6,5.8-9.6s5.3-7.8,8.9-12.8l1.1-1.4c-2.4,2-4.6,3.3-6.8,4.2c-2.2,0.8-4.7,1.2-7.5,1.2c-1.3,0-2.7-0.2-4.1-0.5
			c-2.3,6.4-6.6,13-12.9,19.7L1397.1,874.3z M1411.9,849.5c0.3-1.6,0.4-3,0.4-4.1c0-2.3-0.4-4.1-1.2-5.4c-0.8-1.3-1.9-2-3.2-2
			c-0.7,0-1.3,0.3-1.9,0.9c-0.5,0.6-0.8,1.4-0.8,2.3C1405.2,844.3,1407.4,847.1,1411.9,849.5z"/>
		<path class="st21" d="M1435.2,936.7l5.3-6.4c4.2,4,8.9,6.1,14.1,6.1c5.5,0,10-2,13.3-6c3.4-4,6.1-10.5,8.3-19.5l4.9-20.2
			c-7.9,8.4-15,12.6-21.4,12.6c-3.7,0-6.7-1-8.8-3.1c-2.1-2.1-3.2-4.9-3.2-8.4c0-2.3,0.3-4.9,1-7.7l7.3-35.1l10.4-4l-10.4,39.4
			c-0.9,3.2-1.3,5.6-1.3,7.1c0,2.2,0.7,4,2.2,5.4s3.4,2.1,5.9,2.1c2.7,0,5.6-1.1,8.8-3.2c3.2-2.1,6.8-5.3,10.7-9.5l9.3-37.3l10.1-4
			l-15.7,57.4c-1.9,6.9-3.6,12.3-5.3,16.2c-1.7,3.9-3.6,7.2-5.9,9.8c-7,8.2-15.6,12.3-25.7,12.3
			C1443.2,940.6,1438.6,939.3,1435.2,936.7z"/>
	</g>
	<g>
		<path class="st22" d="M394.3,615.6c10,0,17.3-4.1,22-12.3c-7.6-2.3-13.8-7-18.7-13.8c-4.8-6.9-7.3-14.7-7.3-23.5
			c0-17.9,7.5-33.4,22.4-46.6s32.4-19.8,52.3-19.8c14.8,0,27.5,3.8,37.9,11.5h41.4l0,0c-17.1-16.4-39.8-24.6-67.9-24.6
			c-28.4,0-54.8,9.8-79.1,29.4c-24.3,19.6-36.5,41-36.5,64.2c0,10.3,3.1,18.8,9.4,25.5C376.7,612.2,384.7,615.6,394.3,615.6z"/>
		<path class="st22" d="M506,695.1c23.1-22.3,39.6-42.5,49.4-60.6c9.8-18.2,14.7-37.6,14.7-58.4c0-5.6-0.4-10.9-1.1-16h-38.4
			c0.8,5.6,1.3,11.5,1.3,17.8c0,17.3-3.3,34.1-9.9,50.3s-17,33-31.2,50.3s-33.6,36.9-58.2,58.9c-24.6,21.4-48.1,40.7-70.3,58
			c-22.3,17.3-42.9,32.4-62,45.3V853c22.6-5.6,43.9-8.3,64.2-8.3c15.2,0,39.3,1.8,72.1,5.3c18.2,2,34.6,3.1,49.2,3.1
			c15.2,0,29.6-1.3,43.1-4l26.8-80H549c-7.9,16.4-16.9,28.1-26.8,35.2c-10,7-23,10.5-39.1,10.5c-4.7,0-12-0.3-22-0.9l-35.6-2.6
			c-9.7-0.9-19.8-1.3-30.3-1.3c-13.2,0-25.9,1-38.2,3.1c6.4-5,20.9-16,43.5-33C450,743.6,485.2,715.3,506,695.1z"/>
	</g>
</g>
<g>
	<path class="st23" d="M760.4,613.3l-3.6,15.7c-0.4,1.7-0.6,3-0.6,3.7c0,1.1,0.3,2,0.8,2.7s1.2,1,2.1,1c0.8,0,1.6-0.2,2.3-0.7
		s1.8-1.5,3.2-3l0.6-0.6l0.7,0.7c-1.9,2.3-3.4,3.9-4.6,4.8c-1.2,0.9-2.5,1.4-3.7,1.4c-1.5,0-2.7-0.5-3.6-1.5c-0.9-1-1.3-2.3-1.3-3.9
		c0-1.2,0.2-2.9,0.7-5.2l3.1-15.1H752l0.3-1.6h4.5l2.6-12.7l4.5-1.8l-3.3,14.5h7.6l-0.3,1.6L760.4,613.3L760.4,613.3z"/>
	<path class="st23" d="M768.5,639l12.5-64.5l4.9-2.4l-13.1,57.4c0.1-0.2,0.2-0.4,0.2-0.4l1.1-2.5c1.9-4.2,4.2-7.9,7-10.9
		c2.6-2.9,5.1-4.3,7.3-4.3c1.2,0,2.2,0.4,2.9,1.2s1.1,1.8,1.1,3.1c0,0.7-0.2,1.7-0.5,3.1l-0.5,2l-1.5,5.7l-0.4,1.8
		c-0.5,1.9-0.7,3.3-0.7,4.3s0.2,1.8,0.5,2.4c0.3,0.6,0.8,0.9,1.4,0.9c1,0,2.5-1.2,4.7-3.5l0.7,0.7l-0.4,0.5c-1.8,2.1-3.1,3.5-4,4.3
		c-0.9,0.7-1.6,1.1-2.3,1.1c-1,0-1.8-0.5-2.5-1.6c-0.7-1-1-2.2-1-3.6c0-0.8,0.2-2.3,0.6-4.5l1.8-10c0.3-1.5,0.4-2.6,0.4-3.3
		s-0.2-1.2-0.5-1.5s-0.8-0.5-1.4-0.5c-1.2,0-2.5,0.7-4,2c-1.5,1.4-3,3.3-4.5,5.7s-2.9,5-4,7.8s-2,5.6-2.5,8.5L768.5,639z"/>
</g>
</svg>
